<?xml version="1.0" encoding="UTF-8"?> <svg xmlns="http://www.w3.org/2000/svg" width="160" height="54" viewBox="0 0 160 54" fill="none"><path fill-rule="evenodd" clip-rule="evenodd" d="M53 7.83871C53 4.0618 56.0618 1 59.8387 1H99.1613C102.938 1 106 4.0618 106 7.83871V47.1613C106 50.9382 102.938 54 99.1613 54H59.8387C56.0618 54 53 50.9382 53 47.1613V7.83871ZM99.1613 4.41935H59.8387C57.9503 4.41935 56.4194 5.95025 56.4194 7.83871V47.1613C56.4194 49.0497 57.9503 50.5806 59.8387 50.5806H99.1613C101.05 50.5806 102.581 49.0497 102.581 47.1613V7.83871C102.581 5.95025 101.05 4.41935 99.1613 4.41935ZM76.9355 40.3225V36.9031H95.7419V40.3225H76.9355ZM76.9355 14.6775V33.0565H80.7823V18.0968H84.629V33.0565H88.4758V18.0968H91.0403C91.7485 18.0968 92.3226 18.6709 92.3226 19.3791V33.0565H96.1693V18.9517C96.1693 16.5911 94.2557 14.6775 91.8952 14.6775H76.9355ZM62.8307 18.9517C62.8307 16.5911 64.7443 14.6775 67.1049 14.6775H74.371V33.9113C74.371 37.4522 71.1179 40.3226 67.1049 40.3226H64.9678V36.9033H67.1049C68.9933 36.9033 70.5242 35.5637 70.5242 33.9113V33.0565H67.1049C64.7443 33.0565 62.8307 31.1429 62.8307 28.7823V18.9517ZM70.5242 18.0968H67.9597C67.2515 18.0968 66.6775 18.6709 66.6775 19.3791V28.3549C66.6775 29.0631 67.2515 29.6371 67.9597 29.6371H70.5242V18.0968Z" fill="white"></path></svg> 