<?xml version="1.0" encoding="UTF-8"?> <svg xmlns="http://www.w3.org/2000/svg" width="160" height="54" viewBox="0 0 160 54" fill="none"><path fill-rule="evenodd" clip-rule="evenodd" d="M112.912 9.10796V28.8499V29.6557V45.9729L114.926 44.9153V29.6557V28.8499V8L112.912 9.10796ZM160 26.3319C159.95 22.6554 157.583 20.3892 154.057 20.3892C150.482 20.3892 148.064 22.9576 148.064 26.7851C148.064 30.663 150.532 33.2315 154.309 33.2315C157.23 33.2315 159.295 31.3681 159.799 28.85H157.734C157.331 30.4616 155.921 31.4184 154.158 31.4184C151.791 31.4184 150.23 29.7565 150.179 27.3391V27.188H159.95C160 26.8859 160 26.5837 160 26.3319ZM154.057 22.1518C156.172 22.1518 157.633 23.3605 157.834 25.5261H150.331C150.482 23.4612 152.194 22.1518 154.057 22.1518ZM68.2404 23.8639C66.5784 25.5258 66.5784 28.195 68.2404 29.8569C69.0462 30.6627 70.1541 31.0656 71.2117 31.1663C72.3197 31.1663 73.4277 30.7131 74.2335 29.9073L77.2552 26.8856L74.2335 23.8639C72.5715 22.2019 69.9023 22.2019 68.2404 23.8639ZM89.2917 23.8135C87.6298 22.1516 84.9606 22.1516 83.2986 23.8135L80.2769 26.8352L83.2986 29.8569C84.1044 30.6627 85.2124 31.0656 86.27 31.0656C87.3779 31.0656 88.4859 30.6124 89.2917 29.8066C90.9536 28.1446 90.9536 25.4754 89.2917 23.8135ZM78.7157 25.3244L81.7374 22.3026C82.9965 21.0436 84.608 20.4392 86.27 20.4392C87.9319 20.4392 89.5435 21.0436 90.8026 22.3026C93.3207 24.8207 93.3207 28.8497 90.8026 31.3678C88.2845 33.8859 84.2555 33.8859 81.7374 31.3678L78.7157 28.3461L75.694 31.3678C73.1759 33.8859 69.1469 33.8859 66.6288 31.3678C64.1107 28.8497 64.1107 24.8207 66.6288 22.3026C69.1469 19.7845 73.1759 19.7845 75.694 22.3026L78.7157 25.3244ZM146.1 26.1304V33.1307H144.086V26.2311C144.086 23.6123 142.877 22.2526 140.661 22.2526C138.294 22.2526 136.884 24.0152 136.884 26.8355V33.1307H134.869V20.5402H136.632L136.884 22.2526C137.639 21.2957 138.898 20.3892 141.014 20.3892C143.884 20.3892 146.1 21.9504 146.1 26.1304ZM126.761 20.3892C123.085 20.3892 120.516 23.008 120.516 26.8355C120.516 30.663 123.085 33.2818 126.761 33.2818C130.437 33.2818 133.006 30.663 133.006 26.8355C133.006 23.008 130.437 20.3892 126.761 20.3892ZM126.711 22.2022C129.229 22.2022 130.891 24.1663 130.891 26.8355C130.891 29.5047 129.229 31.4688 126.711 31.4688C124.193 31.4688 122.531 29.5047 122.531 26.8355C122.531 24.1663 124.243 22.2022 126.711 22.2022ZM100.573 22.3028C103.041 22.3028 104.702 24.1662 104.702 26.8857C104.702 29.6053 103.041 31.4687 100.573 31.4687C98.1051 31.4687 96.4431 29.5549 96.4431 26.8354C96.4431 24.1662 98.1051 22.3028 100.573 22.3028ZM100.774 33.2817C104.199 33.2817 106.767 30.7132 106.767 26.8857C106.767 22.8064 104.199 20.4897 100.774 20.4897C98.659 20.4897 97.3496 21.497 96.4935 22.6553L96.2417 20.6408H94.479V38.0157H96.4935V31.2168C97.2489 32.4255 98.659 33.2817 100.774 33.2817ZM63.0533 33.1304H61.0388V17.0649L63.0533 16.0073V33.1304ZM58.8229 22.6047V20.6406H58.2186C56.0026 20.6406 55.0458 21.5471 54.4414 22.504L54.1896 20.6406H52.4773V33.1304H54.4918V26.7848C54.4918 24.7703 55.1968 22.6047 57.8157 22.6047H58.8229ZM48.3978 25.6267C48.1964 23.4611 46.7359 22.2524 44.6711 22.2524C42.858 22.2524 41.1457 23.5618 40.9443 25.6267H48.3978ZM44.6711 20.4897C48.1964 20.4897 50.513 22.7057 50.6138 26.4325C50.6138 26.5526 50.6023 26.6842 50.5903 26.8218L50.5903 26.8219C50.5772 26.9727 50.5634 27.1306 50.5634 27.2886H40.8435V27.4397C40.8939 29.8571 42.4551 31.4687 44.7718 31.4687C46.5344 31.4687 47.8942 30.5621 48.2971 28.9002H50.3116C49.808 31.4183 47.7431 33.2313 44.8725 33.2313C41.1457 33.2313 38.678 30.6629 38.678 26.8354C38.7283 23.0582 41.1457 20.4897 44.6711 20.4897ZM31.0733 22.3028C33.541 22.3028 35.203 24.1662 35.203 26.8857C35.203 29.6053 33.541 31.4687 31.0733 31.4687C28.6056 31.4687 26.9436 29.5549 26.9436 26.8354C26.9436 24.1662 28.6056 22.3028 31.0733 22.3028ZM31.2747 33.2817C34.6994 33.2817 37.2678 30.7132 37.2678 26.8857C37.2678 22.8064 34.6994 20.4897 31.2747 20.4897C29.1595 20.4897 27.8501 21.497 26.994 22.6553L26.7422 20.6408H24.9795V38.0157H26.994V31.2168C27.7494 32.4255 29.1595 33.2817 31.2747 33.2817ZM13.8496 20.6406L17.6772 30.8137L21.4039 20.6406H23.5191L17.7779 35.2456C16.9721 37.2601 16.5188 38.0155 14.7562 38.0155H12.3388V36.2025H14.1015C15.2598 36.2025 15.4109 35.9003 15.9145 34.742L16.5692 33.2311L11.6841 20.6406H13.8496ZM11.1804 33.1305V26.1805C11.1804 22.0508 8.91407 20.4896 6.14416 20.4392C4.02896 20.4392 2.76991 21.4968 2.01448 22.6552V15.957L0 17.065V33.0801H1.96412V26.8352C1.96412 24.0653 3.42461 22.3026 5.74126 22.3026C7.90683 22.3026 9.16588 23.6624 9.16588 26.2812V33.1305H11.1804Z" fill="white"></path></svg> 