<?xml version="1.0" encoding="UTF-8"?> <svg xmlns="http://www.w3.org/2000/svg" width="160" height="54" viewBox="0 0 160 54" fill="none"><path fill-rule="evenodd" clip-rule="evenodd" d="M37.9297 20.2708V45.8651H31.177V20.2708H37.9297ZM82.6439 39.8712V46.1433H81.7587C79.7101 46.1433 77.9904 45.9663 76.6247 45.5869C75.2842 45.2075 74.1714 44.6006 73.3368 43.7407C72.5022 42.8808 71.8953 41.7427 71.5412 40.3517C71.1871 38.9354 71.0101 37.1651 71.0101 35.0659V10.3062H77.7627V20.2708H82.6439V26.0624H77.7627V34.99C77.7627 36.0017 77.8133 36.8363 77.9145 37.4685C78.0409 38.1514 78.2686 38.6572 78.6226 39.0113C78.9767 39.3654 79.5078 39.6183 80.216 39.7194C80.8229 39.8206 81.6575 39.8712 82.6439 39.8712ZM121.288 8.3335V45.8904H114.536V8.3335H121.288ZM56.6702 19.765C60.0086 19.765 62.6388 20.7766 64.5103 22.7999C66.3819 24.8231 67.3429 27.7063 67.3176 31.3482V45.8651H60.5144V32.3345V32.2586C60.5144 30.1595 60.0086 28.5156 59.0475 27.3522C58.0612 26.1888 56.569 25.5819 54.6216 25.5819C52.9777 25.5819 51.5361 26.1888 50.3475 27.4028C49.2347 28.5409 48.653 30.3112 48.5771 32.7139V33.1691V45.8651H41.875V20.2708H48.5265V23.5333V23.9632L48.8806 23.4827C49.7911 22.3193 50.9039 21.4089 52.2443 20.7513C53.5594 20.0937 55.0516 19.765 56.6702 19.765ZM110.084 27.858C110.717 29.4766 111.045 31.1964 111.045 33.0427V35.4453H90.9393L91.0151 35.6729C91.4451 37.1651 92.2544 38.379 93.4431 39.2389C94.6317 40.1241 96.1998 40.554 98.0966 40.554C101.131 40.554 103.559 38.9101 104.571 37.6962L109.427 41.3886C107.302 43.8166 103.762 46.4215 98.046 46.4215C96.0733 46.4215 94.2271 46.0674 92.5579 45.3593C90.8887 44.6764 89.4471 43.7154 88.2837 42.5267C87.1203 41.338 86.1846 39.9218 85.527 38.3031C84.8695 36.6845 84.5407 34.9395 84.5407 33.0932C84.5407 31.247 84.8695 29.5019 85.5776 27.8833C86.2605 26.2647 87.2215 24.8484 88.4102 23.6597C89.5989 22.4711 91.0151 21.5353 92.6338 20.8272C94.2524 20.1443 95.9974 19.7902 97.8437 19.7902C99.7911 19.7902 101.587 20.119 103.205 20.8019C104.824 21.4847 106.215 22.4205 107.378 23.6345C108.516 24.8484 109.427 26.2647 110.084 27.858ZM97.7678 25.5313C93.1396 25.5566 90.9898 28.8191 90.9898 30.6906L104.571 30.6653C104.571 28.7938 102.396 25.5313 97.7678 25.5313ZM128.446 41.8692C128.673 42.0968 128.85 42.3497 128.977 42.6532C129.103 42.9567 129.179 43.2854 129.179 43.6142C129.179 43.943 129.103 44.2718 128.977 44.5753C128.85 44.8788 128.673 45.1317 128.446 45.3593C128.218 45.5869 127.965 45.7639 127.662 45.8904C127.358 46.0169 127.055 46.0927 126.701 46.0927C126.372 46.0927 126.043 46.0169 125.739 45.8904C125.436 45.7639 125.183 45.5869 124.955 45.3593C124.728 45.1317 124.551 44.8788 124.424 44.5753C124.298 44.2718 124.222 43.9683 124.222 43.6142C124.222 43.2854 124.298 42.9567 124.424 42.6532C124.551 42.3497 124.728 42.0968 124.955 41.8692C125.183 41.6415 125.436 41.4645 125.739 41.338C126.043 41.2116 126.346 41.1357 126.701 41.1357C127.029 41.1357 127.358 41.2116 127.662 41.338C127.965 41.4645 128.218 41.6415 128.446 41.8692ZM128.142 45.0811C128.319 44.9041 128.471 44.6764 128.572 44.4235C128.673 44.1706 128.724 43.9177 128.724 43.6142C128.724 43.3107 128.673 43.0578 128.572 42.8049C128.471 42.552 128.319 42.3244 128.142 42.1474C127.965 41.9703 127.737 41.8186 127.485 41.7174C127.232 41.6162 126.953 41.5657 126.675 41.5657C126.372 41.5657 126.119 41.6162 125.866 41.7174C125.613 41.8186 125.385 41.9703 125.208 42.1474C125.031 42.3244 124.88 42.552 124.778 42.8049C124.677 43.0578 124.627 43.336 124.627 43.6142C124.627 43.9177 124.677 44.1706 124.778 44.4235C124.88 44.6764 125.031 44.9041 125.208 45.0811C125.385 45.2581 125.613 45.4099 125.866 45.511C126.119 45.6122 126.397 45.6628 126.675 45.6628C126.979 45.6628 127.232 45.6122 127.485 45.511C127.737 45.4099 127.965 45.2581 128.142 45.0811ZM127.636 43.6142C127.51 43.7407 127.358 43.8165 127.156 43.8418L127.889 45.0558H127.333L126.625 43.8924H126.245V45.0558H125.714V42.1979H126.827C127.156 42.1979 127.434 42.2738 127.586 42.4256C127.763 42.5773 127.839 42.7796 127.839 43.0578C127.839 43.3107 127.763 43.4878 127.636 43.6142ZM126.625 43.4119H126.878C126.953 43.4119 127.029 43.3866 127.105 43.3613C127.156 43.336 127.206 43.2855 127.257 43.2349L127.257 43.2349C127.282 43.1843 127.308 43.1084 127.308 43.0072C127.308 42.9061 127.307 42.8302 127.257 42.7796C127.232 42.729 127.181 42.6785 127.105 42.6532C127.029 42.6279 126.953 42.6026 126.878 42.6026H126.625H126.245V43.4119H126.625ZM31 8.86426H38.1067V15.971H31V8.86426Z" fill="white"></path></svg> 