<?xml version="1.0" encoding="UTF-8"?> <svg xmlns="http://www.w3.org/2000/svg" width="160" height="54" viewBox="0 0 160 54" fill="none"><path fill-rule="evenodd" clip-rule="evenodd" d="M17.8233 15.3335H16.0594L23.6944 39.9182H25.4715L17.8233 15.3335ZM31.1846 15.4332L25.0634 35.7293L25.5768 39.5566L32.8827 15.4332H31.1846ZM8.45071 39.9182H10.32L2.65864 15.3335H1L8.45071 39.9182ZM73.6511 15.3335H64.7261V39.9182H72.5454C76.8236 39.9182 79.5617 39.033 81.76 37.0259C82.953 35.8391 83.8777 34.4342 84.4775 32.8972C85.0773 31.3602 85.3397 29.7234 85.2484 28.0871C85.2484 20.3202 80.6806 15.3335 73.6511 15.3335ZM66.49 38.3848V16.8046L72.9008 16.9043C74.257 16.8123 75.6186 16.9863 76.9006 17.4153C78.1826 17.8443 79.3574 18.5192 80.3515 19.3977C82.4982 21.7683 83.5968 24.8316 83.4187 27.95C83.5794 30.8507 82.5459 33.6974 80.5358 35.8914C78.6929 37.6367 76.4287 38.3848 72.756 38.3848H66.49ZM123.818 37.6991L124.753 39.9182H122.949L113.958 15.3335H115.604L123.818 37.6991ZM131.953 15.3335L124.529 35.7293L124.884 39.5566L133.652 15.3335H131.953ZM150.001 26.6784C153.845 26.5412 156.346 24.5964 156.346 21.6916C156.346 18.7868 153.713 16.7049 150.33 16.7049H141.55V39.8932H139.786V15.3335H150.317C154.924 15.3335 158.097 17.9266 158.097 21.7165C158.103 22.5981 157.899 23.4695 157.5 24.266C157.101 25.0625 156.518 25.7635 155.793 26.3168C154.838 27.0618 153.703 27.5715 152.489 27.8004L158.939 39.8683H157.175L150.804 28.0746L150.001 26.6784ZM107.39 21.6916C107.39 24.5964 104.902 26.5412 101.045 26.6784L101.795 28.0746L108.166 39.8683H109.93L103.493 27.8004C104.699 27.5701 105.825 27.0603 106.771 26.3168C107.496 25.7635 108.079 25.0625 108.478 24.266C108.877 23.4695 109.081 22.5981 109.075 21.7165C109.075 17.9266 105.915 15.3335 101.308 15.3335H90.7771V39.8932H92.5411V16.7049H101.387C104.757 16.7049 107.39 18.7868 107.39 21.6916ZM9.92505 35.7294L15.8619 16.0317L16.4148 19.7718L10.4384 39.5567L9.92505 35.7294ZM56.4723 15.3335V35.7293L58.2363 39.5566V15.3335H56.4723ZM56.0379 39.9182H58.2363L56.4723 37.6991L41.3471 15.3335H38.8987V39.9182H40.6231V17.1786L56.0379 39.9182Z" fill="white"></path></svg> 