<?xml version="1.0" encoding="UTF-8"?> <svg xmlns="http://www.w3.org/2000/svg" width="160" height="54" viewBox="0 0 160 54" fill="none"><path fill-rule="evenodd" clip-rule="evenodd" d="M75.4934 19.2268C73.0134 19.2268 71.3601 20.1068 70.1868 22.1868C69.3068 20.1868 67.4134 19.2268 65.1201 19.2268C62.5868 19.2268 60.6934 20.5868 60.2134 21.8935V19.6535L54.9068 20.6668V36.3735H60.2134V28.0535C60.2134 25.8668 60.5601 23.8135 63.2801 23.8135C65.6534 23.8135 65.5201 26.2935 65.5201 27.5468V36.4001H70.8268V27.5468C70.8268 25.4935 71.5468 23.8135 73.8934 23.8135C75.6001 23.8135 76.1334 25.1202 76.1334 26.6402V36.3735H81.4401V26.5068C81.4668 22.4268 80.0267 19.2268 75.4934 19.2268ZM129.973 19.2268L126.08 30.4535L121.84 19.2268H116.293L123.2 36.3468H128.64L135.2 19.2268H129.973ZM139.2 25.2535C139.387 23.3868 140.987 22.0002 142.853 22.0802C144.747 22.0802 146.053 23.8402 146.053 25.2535H139.2ZM143.333 18.6402C138.133 18.6402 134 22.1335 134 27.4935C134 32.8535 138.133 36.3468 143.333 36.3468C146.053 36.3468 148.773 35.1735 150.427 33.0401L146.827 30.3201C145.947 31.4935 144.827 32.3735 143.12 32.3735C141.2 32.4001 139.547 31.0135 139.227 29.1201H151.147V27.4668C151.147 22.1068 148.187 18.6135 143.28 18.6135H143.333V18.6402ZM157.627 30.3468V13.3335L152.907 14.3468V30.9335C152.907 35.2535 155.973 36.3735 157.867 36.3735C158.64 36.3735 159.52 36.1868 160 35.8401V31.7601C159.04 32.2135 157.627 31.5201 157.627 30.3468ZM108.8 31.9735C106.213 31.9735 104.48 30.2135 104.48 27.4935C104.48 24.7735 106.187 23.0135 108.8 23.0135C111.467 23.0135 113.173 24.7735 113.173 27.4935C113.173 30.2135 111.44 31.9735 108.8 31.9735ZM91.8934 31.9735C89.2267 31.9735 87.5201 30.2135 87.5201 27.4935C87.5201 24.7735 89.2267 23.0135 91.8934 23.0135C94.4801 23.0135 96.2134 24.7735 96.2134 27.4935C96.2134 30.2135 94.5067 31.9735 91.8934 31.9735ZM108.8 18.6402C105.013 18.6402 101.787 20.5335 100.347 23.7068C98.8001 20.4802 95.4667 18.4802 91.8934 18.6402C86.7467 18.6402 82.6134 22.1335 82.6134 27.4935C82.6134 32.8535 86.7467 36.3468 91.8934 36.3468C95.6801 36.3468 98.9067 34.4535 100.347 31.2801C101.76 34.4801 105.013 36.3468 108.8 36.3468C113.947 36.3468 118.08 32.8535 118.08 27.4935C118.08 22.1335 113.92 18.6402 108.8 18.6402ZM37.9468 29.5201L31.5735 35.8935C30.7735 36.7201 29.4668 36.7201 28.6668 35.8935C27.8401 35.0935 27.8401 33.7868 28.6668 33.0135L31.5735 30.1868H9.73349C8.61349 30.1868 7.73349 29.3602 7.73349 28.2402C7.73349 27.1202 8.61349 26.3468 9.73349 26.3468H31.7068L28.7468 23.2268C27.9468 22.4002 27.9468 21.0935 28.7468 20.2668C29.5201 19.4935 30.8001 19.4935 31.5735 20.2668L37.9468 26.6935C38.7201 27.4668 38.7201 28.7201 37.9468 29.5201ZM31.8135 14.5068C28.4535 14.5068 25.2268 15.7335 22.7201 18.0002C18.7468 14.3735 12.9868 13.4402 8.05349 15.6268C3.12017 17.8135 -0.0264985 22.7202 0.00016817 28.1068C-0.0264985 33.4935 3.14683 38.4001 8.05349 40.5868C12.9868 42.7735 18.7468 41.8401 22.7201 38.2135C26.6935 41.8401 32.4535 42.7735 37.3868 40.5868C42.3201 38.4001 45.4668 33.4935 45.4401 28.1068C45.4401 24.5068 44.0001 21.0402 41.4401 18.4802C38.8801 15.9202 35.4135 14.5068 31.8135 14.5068Z" fill="white"></path></svg> 