<?xml version="1.0" encoding="UTF-8"?> <svg xmlns="http://www.w3.org/2000/svg" width="160" height="54" viewBox="0 0 160 54" fill="none"><path fill-rule="evenodd" clip-rule="evenodd" d="M154.065 20.7831H149.386V23.3075H152.213V32.7768H155.49V23.3075C155.705 23.3075 155.898 23.3084 156.073 23.3091H156.073C157.47 23.3151 157.694 23.3161 158.272 22.8475C158.815 22.4079 158.811 22.1632 158.795 21.008V21.008L158.795 21.0069C158.792 20.7769 158.788 20.5107 158.788 20.1997C158.002 20.8045 156.057 20.7935 154.555 20.785C154.385 20.7841 154.221 20.7831 154.065 20.7831ZM121.775 20.7842H118.836C118.14 23.0932 117.333 25.6911 116.576 28.1308L116.573 28.1399L116.56 28.1802C116.333 28.9124 116.11 29.6299 115.896 30.3208C115.83 30.5396 115.766 30.7544 115.702 30.9682L115.697 30.985L115.694 30.9939C115.521 31.5716 115.35 32.1428 115.155 32.7667H117.399C118.218 32.7667 118.218 32.7667 118.521 31.9477L118.563 31.8349C118.827 31.1151 118.875 30.9828 119.89 30.9828C120.023 30.9828 120.147 30.9847 120.262 30.9865C121.071 30.9991 121.472 31.0053 121.865 30.2984L122.246 29.5691C122.397 30.2153 122.553 30.8658 122.71 31.523L122.711 31.5272C122.81 31.9412 122.91 32.3579 123.009 32.7779H126.555C126.476 32.5087 124.311 25.3506 123.189 21.7491C123.107 21.4458 122.92 21.1816 122.661 21.0046C122.401 20.8275 122.087 20.7493 121.775 20.7842ZM120.216 28.3686C120.003 28.3686 119.569 28.4687 119.476 28.7572L119.598 28.3686L120.72 24.5652C120.776 24.7389 121.125 25.9291 121.457 27.0571C121.596 27.5322 121.733 27.9962 121.842 28.3686H120.216ZM87.642 24.0913L87.642 24.0913C86.5362 23.2116 85.5012 22.3882 85.2891 20.7827H82.3384V32.7652H85.2442V25.4949C85.2442 25.7064 85.7075 26.0847 86.2832 26.5548C86.9293 27.0824 87.717 27.7257 88.1501 28.3783C88.7019 29.0596 89.0587 29.8777 89.1823 30.7457C89.263 31.4194 89.2892 32.0985 89.2608 32.7764H92.0994V20.7939H89.2047V25.4949C88.7234 24.9516 88.1745 24.5149 87.6421 24.0913L87.642 24.0913ZM138.651 25.6612C139.035 25.8029 139.468 25.9628 139.928 26.1795H139.883C141.644 27.0546 142.261 27.9298 142.261 29.2986C142.249 30.1765 141.899 31.0159 141.285 31.6434C140.866 32.0282 140.374 32.3255 139.839 32.5181C139.303 32.7108 138.735 32.7948 138.166 32.7654C137.134 32.7829 136.119 32.5067 135.238 31.9688C134.565 31.5312 133.813 30.9591 133.813 30.1176V27.9859C134.427 28.6153 135.144 29.1351 135.933 29.5229C136.558 29.8779 137.258 30.0781 137.975 30.1064C138.346 30.1176 139.008 29.882 139.097 29.4781C139.187 29.0742 138.806 28.5356 138.301 28.2664C138.084 28.1505 137.791 28.0096 137.477 27.8582C137.061 27.6577 136.607 27.4387 136.236 27.2342L136.221 27.2258C135.559 26.8603 133.813 25.8975 133.813 24.2385C133.781 23.5955 133.955 22.9591 134.31 22.4221C134.666 21.8851 135.183 21.4759 135.788 21.2541C136.623 20.8966 137.531 20.7446 138.437 20.8111C139.343 20.8775 140.22 21.1602 140.994 21.6356C141.276 21.8457 141.491 22.1344 141.61 22.4656C141.73 22.7967 141.75 23.1557 141.667 23.498C141.566 23.771 141.384 24.0066 141.145 24.173C140.907 24.3395 140.623 24.429 140.332 24.4293C140.332 23.7337 139.378 23.3073 138.379 23.3073C137.549 23.3073 137.055 23.7224 137.055 24.362C137.055 25.0726 137.703 25.3116 138.651 25.6612ZM58.6984 20.8178C58.8608 22.6418 58.2358 24.2666 57.6137 25.8841C57.2906 26.7239 56.9683 27.5618 56.7574 28.4246C56.3414 27.2981 55.5641 24.8999 55.0146 23.2048L55.0146 23.2046L55.0143 23.2038L55.014 23.2028C54.8523 22.704 54.7104 22.2662 54.6032 21.9397C54.4237 21.39 54.1993 20.8178 53.4813 20.8178H50.7998V20.9636C51.2863 22.3242 51.7825 23.7168 52.2821 25.1189L52.2822 25.1192L52.2823 25.1194L52.2823 25.1194C53.1999 27.6945 54.1288 30.3014 55.0296 32.8002H57.4306C57.6854 32.7595 57.9244 32.6502 58.122 32.4843C58.3196 32.3183 58.4684 32.1017 58.5525 31.8578C58.6967 31.4372 59.0241 30.5302 59.4098 29.4612C60.1045 27.5363 60.9887 25.0861 61.3349 24.0041C61.7055 22.9966 61.8622 21.9229 61.7949 20.8514L58.6984 20.8178ZM104.542 32.7764H101.277V20.7827H108.356V23.4978H104.575V25.45H107.941V26.572C107.941 27.5032 107.392 28.0978 106.27 28.0978H104.542V32.7764ZM69.997 20.7827H71.994L72.0277 20.8388C72.1838 20.8166 72.3429 20.8296 72.4932 20.8769C72.6435 20.9243 72.7813 21.0047 72.8965 21.1124C73.0117 21.22 73.1013 21.3521 73.1586 21.4989C73.2161 21.6458 73.2399 21.8036 73.2282 21.9607V27.391V32.7764H69.997V20.7827Z" fill="white"></path><path fill-rule="evenodd" clip-rule="evenodd" d="M36.9268 9.65366C37.3752 9.3161 38.0078 8.83994 38.4805 9.05297C38.9939 9.28847 38.4334 10.3765 38.4192 10.3765C38.2167 11.0547 35.3907 17.7007 32.5646 23.8237C30.1526 29.0766 27.8762 33.6263 26.8439 35.6892C26.7877 35.8016 26.7351 35.9066 26.6865 36.004C22.942 43.4883 20.846 44.2701 20.342 44.2701C19.838 44.2607 17.7656 43.4836 13.9976 36.004C13.0603 34.1388 10.6675 29.3628 8.12411 23.8237C5.30749 17.6818 2.49087 11.0547 2.26008 10.3765C2.26008 10.3765 1.70428 9.28847 2.21769 9.05297C2.69376 8.8399 3.32515 9.31631 3.77254 9.65388C3.9581 9.7939 4.112 9.91003 4.21005 9.94317C5.20914 10.1395 6.13293 10.6129 6.87594 11.3091C7.5351 11.961 9.98525 15.4745 12.4784 19.0497C14.8487 22.4488 17.2579 25.9036 18.2036 27.0078C18.4018 27.2392 18.5931 27.4659 18.7747 27.6811C19.5428 28.5913 20.1381 29.2968 20.3514 29.2968C20.5648 29.2968 21.1601 28.5913 21.9282 27.6811C22.1098 27.4659 22.3011 27.2392 22.4992 27.0078C23.4448 25.9061 25.851 22.4525 28.2191 19.0535C30.7109 15.4771 33.1605 11.9611 33.8222 11.3091C34.5652 10.6129 35.489 10.1395 36.4881 9.94317C36.5862 9.91001 36.7406 9.79377 36.9268 9.65366ZM30.6391 23.7055C33.6118 17.7961 36.8245 11.4096 37.5385 10.5979H37.5196C37.5816 10.5271 37.6596 10.444 37.7437 10.3543C38.113 9.96051 38.5989 9.44247 38.3533 9.31202C38.1136 9.17856 37.6833 9.49399 37.2483 9.81292C36.931 10.0455 36.6112 10.28 36.361 10.3435C35.543 10.4681 34.7903 10.8627 34.2226 11.4645C33.4455 12.1971 32.2081 14.0743 30.2698 17.0146C29.5413 18.1198 28.7138 19.3751 27.7745 20.7763C25.6267 23.9933 23.8369 26.4661 22.8336 27.7237C21.5855 29.3204 20.7282 30.0787 20.3514 30.0787C19.9746 30.0787 19.1127 29.3063 17.8645 27.7237C16.8613 26.4614 15.0715 23.9886 12.9237 20.7763C11.985 19.3761 11.1577 18.1216 10.4292 17.017C8.48925 14.0753 7.25076 12.1973 6.4803 11.4645C5.91189 10.8636 5.1595 10.4691 4.34193 10.3435C4.09803 10.2806 3.78268 10.0501 3.46756 9.81976C3.02806 9.49852 2.589 9.1776 2.34486 9.31202C2.11601 9.43957 2.57744 9.93766 2.93893 10.3279C3.03129 10.4276 3.11712 10.5202 3.18325 10.5979C3.89948 11.4121 7.1335 17.832 10.1176 23.7558C12.2946 28.0774 14.3387 32.135 15.1751 33.5595C17.158 36.9366 19.6591 41.0626 20.3561 41.0956C21.0579 41.0956 23.5825 36.9224 25.5608 33.5595C26.3988 32.1348 28.4541 28.049 30.6391 23.7055ZM34.148 14.1818C34.8431 12.8698 35.3373 11.937 35.5508 11.5868C35.9983 10.7484 35.8523 10.5506 34.9338 11.615C33.5632 13.1882 30.2661 18.8921 30.2661 18.8921C30.2661 18.8921 24.5387 28.4158 23.7003 29.6028C22.8619 30.7897 21.0061 33.1966 20.342 33.2201C19.6873 33.1966 17.874 30.8557 16.9885 29.6028C16.103 28.3499 10.432 18.8921 10.432 18.8921C10.432 18.8921 7.14442 13.1741 5.7738 11.5868C4.85533 10.5506 4.71874 10.8143 5.16149 11.5868C5.31858 11.8609 5.65356 12.4943 6.12561 13.3869C6.98399 15.01 8.29559 17.4901 9.81503 20.225C12.4385 24.9869 15.533 30.3705 16.1501 31.4162C17.3135 33.385 19.6308 36.7291 20.3514 36.7574C21.0768 36.7338 23.3941 33.385 24.5575 31.4209C25.1793 30.3705 28.2926 24.9869 30.8973 20.225C32.1796 17.8974 33.3098 15.7639 34.148 14.1818Z" fill="white"></path></svg> 